<?xml version="1.0" standalone="no"?>
<!DOCTYPE svg PUBLIC "-//W3C//DTD SVG 20010904//EN"
 "http://www.w3.org/TR/2001/REC-SVG-20010904/DTD/svg10.dtd">
<svg version="1.0" xmlns="http://www.w3.org/2000/svg"
 width="1024.000000pt" height="1024.000000pt" viewBox="0 0 1024.000000 1024.000000"
 preserveAspectRatio="xMidYMid meet">

<g transform="translate(0.000000,1024.000000) scale(0.100000,-0.100000)"
fill="#000000" stroke="none">
<path d="M4014 8675 c-1126 -403 -1850 -670 -1997 -738 l-87 -40 -3 -1861 c-3
-2279 -3 -2194 18 -2276 22 -89 93 -230 162 -322 224 -297 839 -910 1228
-1223 172 -138 621 -471 775 -575 306 -206 673 -408 919 -505 l93 -37 62 22
c85 31 438 205 571 282 397 231 750 490 1385 1017 362 300 830 779 1013 1036
55 79 119 205 145 286 15 50 17 217 19 2101 l3 2047 -41 22 c-80 41 -373 150
-1317 493 -1468 534 -1757 636 -1842 649 -29 5 -229 -64 -1106 -378z m1303
111 c114 -41 552 -199 973 -351 738 -267 1192 -430 1560 -557 96 -33 199 -71
228 -84 l52 -23 -2 -1988 -3 -1988 -39 -70 c-88 -157 -179 -278 -378 -500
-281 -314 -551 -568 -944 -886 -577 -468 -955 -719 -1424 -948 -209 -102 -223
-104 -350 -48 -101 44 -315 161 -490 265 -570 343 -1240 880 -1780 1428 -326
332 -486 530 -578 715 l-32 67 2 1982 3 1983 305 109 c168 60 512 185 765 278
253 92 728 263 1055 379 327 116 651 233 720 260 69 27 130 49 137 50 6 1 105
-32 220 -73z"/>
<path d="M3010 7048 l0 -633 145 3 145 3 0 200 0 199 93 0 92 0 82 -167 c45
-93 91 -183 102 -200 l21 -33 164 0 164 0 -50 83 c-27 45 -80 143 -118 218
l-68 135 63 46 c96 70 135 171 135 355 0 136 -35 237 -107 304 -106 99 -208
119 -615 119 l-248 0 0 -632z m563 358 c123 -51 135 -231 20 -298 -39 -23
-163 -40 -235 -32 l-58 7 0 168 0 169 120 0 c79 0 132 -5 153 -14z"/>
<path d="M4170 7049 l0 -632 415 4 415 4 0 133 0 132 -270 0 -270 0 0 88 c0
48 -3 104 -6 125 l-7 37 232 0 231 0 0 120 0 120 -225 0 -225 0 0 89 c0 49 -3
103 -6 120 l-6 31 276 0 276 0 0 130 0 130 -415 0 -415 0 0 -631z"/>
<path d="M5190 7055 l0 -625 253 0 c173 0 280 5 342 15 219 35 333 107 387
244 20 52 22 77 26 313 2 159 -1 284 -7 329 -23 143 -83 223 -215 285 -118 55
-188 64 -506 64 l-280 0 0 -625z m612 342 c40 -20 60 -38 79 -69 24 -42 24
-46 23 -284 0 -236 -1 -241 -24 -274 -41 -57 -95 -74 -257 -78 l-143 -4 0 372
0 373 134 -5 c119 -4 139 -7 188 -31z"/>
<path d="M6390 7053 l0 -628 420 0 420 0 0 126 0 127 -145 7 c-80 4 -201 6
-270 3 l-125 -4 0 128 0 128 225 0 225 0 0 120 0 120 -225 0 -225 0 0 120 0
120 268 0 268 0 -1 130 0 130 -417 0 -418 0 0 -627z"/>
<path d="M2658 6160 c-142 -35 -218 -93 -259 -196 -22 -56 -23 -73 -27 -363
-2 -198 0 -327 8 -370 37 -214 160 -301 427 -301 l93 0 55 -85 55 -85 128 1
c70 1 137 4 150 7 22 7 22 7 -15 62 -20 30 -49 77 -64 104 l-27 49 49 45 c55
49 93 108 116 180 22 66 19 615 -3 712 -25 112 -93 189 -199 225 -115 38 -360
46 -487 15z m351 -255 c19 -11 43 -33 55 -48 20 -27 21 -40 21 -285 0 -232 -2
-260 -19 -292 -47 -88 -103 -120 -211 -120 -81 0 -104 7 -148 49 -57 52 -58
62 -59 325 0 259 5 290 55 345 39 42 74 52 177 48 73 -2 103 -7 129 -22z"/>
<path d="M3542 5668 l3 -503 24 -45 c40 -75 69 -106 129 -138 86 -45 150 -56
307 -56 119 0 150 4 205 23 80 27 157 79 189 125 50 75 50 78 51 604 l0 492
-138 0 -138 0 0 -462 c1 -431 0 -465 -17 -490 -26 -38 -85 -58 -172 -58 -81 0
-114 9 -145 40 -20 20 -20 30 -20 495 l0 475 -140 0 -141 0 3 -502z"/>
<path d="M4635 5555 l0 -615 138 0 137 0 0 615 0 615 -137 0 -138 0 0 -615z"/>
<path d="M5158 6163 l-48 -4 0 -610 0 -609 135 0 135 0 0 195 0 196 86 -3 86
-3 67 -150 c37 -82 78 -169 91 -192 l24 -43 148 0 c81 0 148 2 148 6 0 3 -26
51 -59 107 -79 138 -171 312 -171 323 0 6 15 15 33 22 53 20 125 79 146 120
30 59 44 163 38 276 -7 135 -33 204 -101 271 -88 86 -181 105 -501 103 -115
-1 -231 -3 -257 -5z m489 -250 c44 -21 81 -76 89 -134 9 -64 -25 -142 -72
-164 -41 -19 -130 -35 -201 -35 -88 0 -83 -10 -83 181 l0 169 116 0 c87 0 125
-4 151 -17z"/>
<path d="M6447 6153 c-3 -10 -25 -92 -50 -183 -25 -91 -97 -345 -160 -565 -63
-220 -118 -415 -122 -433 l-7 -33 133 3 133 3 18 60 c9 33 24 86 33 118 l17
57 196 -2 196 -3 30 -117 29 -118 137 0 c75 0 139 2 142 5 3 3 -14 67 -38 143
-43 137 -137 473 -244 867 l-56 210 -191 3 c-175 2 -191 1 -196 -15z m218
-310 c16 -77 78 -336 91 -380 6 -23 6 -23 -121 -23 -116 0 -126 1 -121 18 8
26 116 455 116 459 0 1 4 3 9 3 5 0 17 -35 26 -77z"/>
<path d="M7279 5613 c-2 -307 -3 -584 -1 -615 l4 -58 324 0 324 0 0 130 0 130
-195 0 -195 0 0 485 0 485 -129 0 -129 0 -3 -557z"/>
<path d="M5053 4565 c-121 -33 -216 -103 -260 -193 -25 -51 -28 -67 -28 -162
0 -87 4 -113 22 -152 30 -65 102 -132 184 -171 l69 -32 1 -172 c1 -95 2 -178
3 -184 1 -6 -27 -22 -62 -35 -102 -38 -189 -110 -231 -191 l-12 -23 -37 24
c-20 13 -136 68 -256 122 -244 110 -222 92 -271 229 -24 67 -113 156 -180 178
-118 41 -244 10 -336 -82 -131 -132 -126 -326 13 -464 65 -65 115 -82 221 -75
95 6 173 43 229 108 l41 48 76 -32 c42 -18 164 -74 272 -125 l196 -93 6 -61
c3 -34 13 -80 21 -103 l14 -41 -51 -39 c-28 -21 -105 -78 -171 -126 l-120 -88
-111 0 c-99 0 -117 -3 -163 -26 -91 -45 -131 -134 -119 -263 16 -186 197 -290
375 -215 108 44 165 172 144 321 l-9 62 91 64 c219 154 229 160 256 149 14 -6
54 -23 90 -39 58 -25 76 -28 175 -28 108 0 111 1 180 38 38 20 76 37 83 37 8
0 35 -17 61 -38 25 -21 94 -71 154 -111 59 -40 107 -76 107 -79 0 -4 -7 -29
-15 -57 -17 -54 -10 -117 20 -193 21 -51 108 -114 184 -132 125 -30 272 53
317 177 28 81 10 202 -40 268 -15 19 -55 51 -91 70 -82 46 -152 55 -223 30
l-50 -18 -161 108 c-123 82 -160 112 -156 124 17 43 35 154 35 222 l0 76 38
26 c62 42 191 120 396 241 l196 116 43 -33 c145 -110 317 -105 443 15 77 72
99 129 99 253 0 91 -3 105 -29 158 -35 69 -80 110 -156 146 -45 21 -69 25
-136 25 -73 0 -89 -4 -150 -35 -113 -56 -170 -150 -181 -299 l-6 -76 -76 -43
c-68 -39 -477 -284 -536 -320 -21 -14 -26 -12 -71 27 -44 39 -157 102 -183
102 -7 0 -11 26 -11 73 0 41 -3 128 -6 194 l-7 120 51 17 c72 24 144 92 184
174 31 62 33 74 33 167 0 90 -3 105 -28 153 -54 103 -134 162 -256 188 -78 16
-72 16 -138 -1z m150 -169 c39 -17 92 -71 106 -109 6 -16 11 -60 11 -99 0 -68
-1 -72 -37 -108 -54 -53 -129 -76 -197 -61 -90 20 -165 105 -166 187 0 49 47
131 93 163 23 15 49 31 57 34 28 11 101 7 133 -7z m1272 -437 c55 -16 92 -44
115 -89 67 -130 -42 -280 -186 -257 -86 14 -146 88 -146 178 1 78 44 138 119
164 47 17 49 17 98 4z m-2494 -335 c52 -46 78 -173 44 -220 -23 -34 -77 -54
-143 -54 -51 0 -66 4 -92 26 -87 74 -79 185 20 252 29 20 44 23 92 20 38 -3
65 -11 79 -24z m1257 -330 c65 -32 108 -84 129 -153 45 -157 -59 -311 -222
-328 -225 -23 -364 250 -213 421 52 60 107 85 189 86 51 0 76 -6 117 -26z
m817 -807 c43 -43 52 -79 34 -131 -20 -56 -70 -89 -126 -83 -56 6 -91 30 -110
74 -20 50 -9 99 32 140 29 29 39 33 85 33 46 0 56 -4 85 -33z m-1715 -2 c82
-43 77 -175 -9 -220 -59 -30 -126 -10 -161 48 -25 41 -25 73 0 115 39 64 110
88 170 57z"/>
</g>
</svg>
