<?xml version="1.0" encoding="utf-8" ?><svg xmlns="http://www.w3.org/2000/svg" xmlns:xlink="http://www.w3.org/1999/xlink" width="1024" height="933" viewBox="0 0 1024 933"><path fill="#03B6E5" d="M260.844 58.248L611.784 58.3443L712.473 58.2344C727.863 58.2163 749.589 57.4834 764.359 58.4429C768.093 64.333 772.116 72.9458 775.649 79.2658L805.038 132.011C838.033 190.941 870.629 250.093 902.825 309.463L961.361 415.806C967.397 426.975 980.318 448.685 984.719 459.595C983.712 465.227 972.415 482.69 968.934 488.802L938.123 542.626L805.119 777.635C788.823 806.011 773.632 835.295 756.888 863.743L754.662 867.971C741.086 868.397 726.357 868.156 712.692 868.206L644.594 868.522L463.709 868.95L333.962 869.225C313.75 869.319 288.915 870.498 269.01 869.604C266.022 865.018 262.407 858.14 259.656 853.232C253.21 841.778 246.823 830.292 240.497 818.772L177.997 707.075L90.8618 552.033L60.2646 496.888C53.7782 485.215 46.9829 473.649 40.9562 461.737C39.5221 458.903 38.6003 456.238 39.8957 453.236C44.3738 442.86 51.1232 432.369 56.6447 422.509L89.79 362.623L226.194 118.085C234.694 103.071 250.212 75.2338 259.44 58.9201C259.908 58.696 260.376 58.472 260.844 58.248Z"/><path d="M270.064 76.2818C291.324 76.9724 316.277 76.3333 337.716 76.3398L465.334 76.4972L650.437 76.6071C684.308 76.6422 718.673 76.9996 752.492 76.6378C772.88 114.062 793.659 151.272 814.826 188.26L916.512 370.742C932.587 399.559 950.352 429.803 965.665 458.798C963.157 463.838 958.514 471.31 955.614 476.393L939.04 505.862L888.836 595.371L748.458 845.247C747.421 847.194 746.099 849.289 744.955 851.202C730.634 851.724 712.719 851.237 698.095 851.262L597.944 851.32L280.868 851.592C275.659 841.118 266.922 826.634 260.967 816.095L226.018 754.185L109.039 546.639L74.1508 484.893C68.3337 474.501 63.647 466.668 58.2435 455.868C66.0727 443.661 72.9026 430.482 80.0173 417.874L126.638 334.304L240.365 129.398C250.152 111.695 260.433 94.0785 270.064 76.2818Z"/><path fill="#03B6E5" d="M514.029 220.774C516.158 222.642 523.437 251.637 524.596 256.56C538.215 263.099 542.384 272.097 542.679 286.911C562.302 296.217 584.728 308.91 604.046 319.485L664.131 351.806C666.105 349.419 668.003 346.974 670.422 345.028C681.133 336.414 694.831 337.251 705.658 344.876C716.347 342.052 727.518 338.071 738.401 335.047C731.462 344.112 723.607 352.643 716.143 361.329C717.746 369.651 717.391 377.699 712.817 385.077C708.842 391.623 702.375 396.271 694.902 397.95C694.91 443.452 695.74 491.584 694.743 536.869C710.848 541.39 719.672 557.675 715.036 573.634C721.795 581.762 731.848 590.613 737.602 599.178L705.927 589.024C705.25 589.506 704.564 589.973 703.868 590.427C689.925 599.479 672.859 596.901 663.755 582.539L568.37 635.381C559.428 640.376 550.296 645.087 541.43 650.209C545.252 666.92 537.922 677.377 523.881 685.172C521.478 696.663 517.604 709.82 514.536 721.273L512.933 715.889C511.268 707.654 506.91 693.629 504.61 685.065C490.571 678.618 483.204 665.632 487.024 650.305L363.591 582.675C354.789 598.253 333.074 601.127 320.488 588.861C311.302 592.581 297.517 596.845 287.622 600.392C292.208 594.129 305.668 580.392 311.436 574.26C306.16 558.098 316.33 541.435 332.553 537.248L332.485 398.453C314.965 394.564 305.41 378.58 310.691 361.321C303.151 352.327 295.134 344.028 287.614 334.939C298.523 338.692 309.649 341.834 320.694 345.226C335.979 334.086 352.48 337.78 363.529 352.508C367.171 351.153 372.287 348.129 375.838 346.239C382.882 342.553 389.906 338.829 396.91 335.067L450.364 306.813C462.159 300.554 474.231 293.594 486.417 288.158C484.913 272.066 490.837 263.575 504.641 256.158C507.986 244.686 510.503 232.042 514.029 220.774Z"/><path d="M507.925 387.398C552.26 383.395 591.433 416.123 595.377 460.463C599.322 504.804 566.542 543.933 522.196 547.819C477.933 551.698 438.893 518.993 434.955 474.735C431.018 430.477 463.672 391.393 507.925 387.398Z"/><path fill="#03B6E5" d="M509.243 410.056C541.068 406.767 569.538 429.888 572.849 461.711C576.16 493.533 553.059 522.019 521.238 525.352C489.387 528.689 460.866 505.56 457.552 473.706C454.238 441.852 477.387 413.347 509.243 410.056Z"/><path d="M361.707 387.978C384.1 401.811 406.576 415.51 429.133 429.075C428.574 430.256 428.045 431.45 427.544 432.656C417.995 455.633 419.398 483.665 428.88 506.494C418.44 513.226 408.091 519.25 397.633 525.844C386.503 532.661 372.819 541.484 361.716 547.75C357.508 541.284 350.803 538.03 343.519 536.379C343.261 491.201 343.102 444.404 343.615 399.285C351.582 397.098 356.782 394.787 361.707 387.978Z"/><path d="M665.462 388.419C666.263 388.91 667.978 390.847 668.811 391.581C674.096 396.236 676.619 397.722 683.307 398.884C683.77 414.061 683.394 431.317 683.386 446.627L683.376 536.044C674.197 538.418 671.6 539.993 665.206 547.096C654.166 540.157 642.831 533.501 631.918 526.521C622.242 520.173 609.971 513.767 601.049 507.01C611.388 478.925 611.258 456.022 600.712 428.143C621.565 414.791 645.128 402.094 665.462 388.419Z"/><path d="M434.366 516.953C436.207 519.184 437.804 523.128 439.636 525.566C456.804 548.408 479.92 560.811 508.369 562.052L508.479 629.142C500.255 630.421 496.769 634.354 491.466 639.928C480.552 633.698 469.643 628.208 458.764 621.971C452.078 618.018 444.835 614.337 437.998 610.515L367.443 571.534C367.671 566.245 367.501 563.536 366.563 558.375C388.172 545.141 413.447 530.701 434.366 516.953Z"/><path d="M489.505 298.947C492.805 300.215 493.81 308.313 508.488 312.175C508.936 331.86 508.637 352.939 508.692 372.746C477.668 374.779 450.364 392.607 434.615 419.091C425.342 413.907 413.519 406.227 404.08 400.607C391.605 392.684 379.075 385.493 366.538 377.701C367.77 371.948 367.816 369.159 366.987 363.414C379.661 357.749 396.029 348.094 408.738 341.611C435.549 327.936 462.539 312.154 489.505 298.947Z"/><path d="M594.973 517.223C595.843 517.618 600.622 520.749 601.804 521.478L619.126 532.19C632.63 540.698 646.247 548.785 659.807 557.187C658.723 562.169 658.979 566.655 659.074 571.7C629.05 588.874 598.01 605.375 567.793 622.344C557.628 628.247 547.087 633.869 536.848 639.764C531.397 633.607 528.118 630.953 519.966 629.08L519.967 562.032C526.339 561.876 532.677 561.054 538.878 559.578C563.545 553.661 581.867 538.474 594.973 517.223Z"/><path d="M539.577 297.781C543.613 299.503 552.309 304.506 556.636 306.845L590.23 325.051L631.919 347.563C640.939 352.367 650.969 357.395 659.705 362.651C658.821 368.831 659.019 372.319 660.096 378.438C648.303 386.145 635.715 393.122 623.719 400.762C614.957 406.104 603.575 413.256 594.947 418.101C591.901 413.355 588.826 408.584 585.081 404.351C568.406 385.669 545.003 374.363 520.004 372.912C520.615 353.047 519.809 332.406 520.23 312.359C529.692 309.532 534.351 306.215 539.577 297.781Z"/><path fill="#03B6E5" d="M521.611 127.568L552.848 127.487C564.83 127.461 580.986 125.93 590.583 134.489C601.766 144.462 599.517 163.177 599.615 176.721C599.699 188.403 599.49 197.822 591.203 206.718C578.993 216.508 564.965 214.511 550.147 214.436C540.661 214.38 531.175 214.389 521.689 214.464C521.15 185.79 521.979 156.403 521.611 127.568Z"/><path d="M541.884 144.481C550.037 144.55 568.342 142.705 574.407 147.383C576.971 149.192 579.177 154.268 579.144 157.362C579.042 166.912 581.762 185.947 575.821 193.518C568.745 198.656 550.942 197.068 541.805 197.058C541.653 179.533 541.679 162.006 541.884 144.481Z"/><path fill="#03B6E5" d="M312.472 727.162C313.394 727.066 314.32 727.004 315.246 726.978C355.238 726.154 367.598 725.721 364.695 771.892C363.916 784.281 367.389 791.565 357.243 801.866C360.455 807.34 363.991 811.808 367.324 817.804C362.722 817.997 357.809 817.981 353.18 818.049L347.762 817.983C345.586 814.672 343.471 811.322 341.419 807.934C317.782 807.321 290.281 814.207 291.661 779.413C292.473 758.966 284.944 731.599 312.472 727.162Z"/><path d="M317.418 743.124C324.552 742.939 333.667 742.073 340.572 743.918C341.873 744.265 343.672 745.966 344.682 746.894C344.899 747.486 345.089 748.057 345.255 748.665C346.604 753.609 347.057 783.389 344.767 787.054C343.381 789.273 340.513 789.735 338.171 790.32C332.226 791.88 321.496 793.509 315.718 791.158C313.486 790.25 312.021 788.442 311.205 786.215C309.691 782.085 309.469 751.646 311.406 747.764C312.715 745.14 314.755 744.071 317.418 743.124Z"/><path fill="#03B6E5" d="M347.874 127.606L380.237 127.591C393.495 127.562 411.531 125.13 419.069 138.367C423.723 146.936 423.179 159.967 421.698 169.327C420.663 175.874 414.595 180.58 409.379 183.685C414.497 194.036 419.83 204.104 425.059 214.382C419.367 214.465 413.577 214.434 407.875 214.459L402.912 214.509C398.288 205.344 393.069 194.337 387.924 185.612C381.276 185.668 374.628 185.661 367.981 185.593C367.936 195.201 367.83 204.809 367.664 214.416L347.795 214.506L347.874 127.606Z"/><path d="M367.73 144.34C377.409 144.298 387.088 144.358 396.765 144.521C404.225 149.196 404.259 159.801 400.318 166.647C394.921 171.016 375.449 169.074 367.923 169.174L367.73 144.34Z"/><path fill="#03B6E5" d="M509.337 727.644C518.093 727.552 528.255 727.875 536.836 727.751C558.419 727.487 577.772 724.993 577.06 754.051C576.783 765.342 577.821 773.647 564.712 779.026C569.654 788.77 575.133 798.82 580.327 808.444C575.391 808.256 570.85 808.262 565.925 808.303L559.511 808.458C554.895 799.498 550.433 790.46 546.128 781.346C540.355 781.593 533.538 781.379 527.681 781.323L527.644 808.483C521.618 808.378 515.401 808.468 509.359 808.486L509.337 727.644Z"/><path d="M527.932 743.503C534.695 743.603 549.811 741.843 555.574 745.303C560.055 747.993 559.602 760.271 556.075 764.503C550.676 767.261 534.278 766.318 527.523 766.28C527.549 758.686 527.504 751.085 527.932 743.503Z"/><path fill="#03B6E5" d="M439.784 127.838C458.614 127.035 482.52 127.671 501.782 127.642C503.911 127.737 504.424 127.404 505.962 128.369C506.678 131.594 506.935 141.551 505.862 144.302C505.36 144.481 504.678 144.753 504.179 144.869C501.656 144.328 492.168 144.536 489.124 144.55L459.962 144.641L459.84 161.667C473.078 161.559 487.59 161.535 500.774 161.855C500.853 167.397 500.872 172.941 500.828 178.484C487.185 178.501 473.57 178.282 459.924 178.481C459.712 184.987 459.765 190.53 459.949 197.044C475.649 197 491.349 197.088 507.047 197.308L507.052 214.447C484.593 214.334 462.135 214.362 439.677 214.531C440.068 185.855 439.774 156.55 439.784 127.838Z"/><path fill="#18ADD5" d="M501.782 127.642C503.911 127.737 504.424 127.404 505.962 128.369C506.678 131.594 506.935 141.551 505.862 144.302C505.36 144.481 504.678 144.753 504.179 144.869C503.444 140.162 504.961 132.684 503.374 128.368L501.782 127.642Z"/><path fill="#03B6E5" d="M615.677 127.669L682.03 127.845L682.01 144.569C666.675 144.485 651.339 144.513 636.004 144.653L635.979 161.66C648.918 161.599 663.741 161.366 676.526 161.946C676.466 167.412 676.549 173.008 676.574 178.486C663.841 178.516 651.108 178.472 638.375 178.355L636.625 178.599C635.324 180.69 635.976 193.673 636.013 197.034C649.272 196.902 669.902 196.61 682.901 197.371L683.008 214.401C660.532 214.261 638.056 214.284 615.581 214.47L615.677 127.669Z"/><path fill="#03B6E5" d="M380.544 727.496L399.513 727.423L399.467 763.145C399.444 769.936 398.231 783.588 401.762 790.016C402.435 791.242 406.699 792.7 408.239 792.558C415.563 791.88 425.556 794.384 431.935 790.373C433.227 789.143 434.041 785.645 434.1 784.037C434.779 765.357 433.863 746.505 434.369 727.819C440.116 727.495 446.977 727.641 452.824 727.64L452.806 742.92L452.874 771.284C452.89 782.034 454.384 794.523 446.17 802.805C438.27 810.774 425.787 808.316 415.503 808.554C407.917 808.412 397.399 809.789 390.588 805.65C378.243 798.148 380.527 776.313 380.524 764.293L380.544 727.496Z"/><path fill="#03B6E5" d="M615.006 727.521L638.102 727.56L655.802 775.186C659.822 785.993 664.383 797.079 667.913 808.008L647.521 808.228C645.452 803.087 643.834 798.541 642.059 793.288C631.909 793.136 621.84 793.576 611.687 793.268C613.184 788.704 615.317 783.352 617.02 778.792L636.84 778.924L635.535 774.828C632.023 765.107 629.161 756.804 626.145 746.863C623.318 754.144 620.875 762.447 618.271 769.929C613.756 782.715 609.074 795.441 604.226 808.105C597.797 807.968 590.947 808.113 584.487 808.141C593.928 781.452 605.794 754.618 615.006 727.521Z"/><path fill="#03B6E5" d="M678.298 727.004L696.872 726.982C697.152 748.079 696.977 769.889 696.854 791.007L736.899 790.98L736.904 807.489L678.365 807.546C677.869 796.382 678.09 784.126 678.077 772.834C677.954 757.557 678.028 742.279 678.298 727.004Z"/><path fill="#03B6E5" d="M471.273 727.765C477.56 727.614 483.849 727.632 490.134 727.818C490.21 754.559 489.876 781.764 490.301 808.457L471.287 808.427C471.048 800.436 471.35 790.946 471.374 782.802C471.492 764.457 471.459 746.11 471.273 727.765Z"/></svg>